<?xml version="1.0" encoding="UTF-8" standalone="no"?>
<!-- Created with Inkscape (http://www.inkscape.org/) -->

<svg
   width="60.845917mm"
   height="10.245367mm"
   viewBox="0 0 60.845917 10.245367"
   version="1.1"
   id="svg561"
   inkscape:version="1.2.1 (9c6d41e410, 2022-07-14)"
   sodipodi:docname="tfp.svg"
   xmlns:inkscape="http://www.inkscape.org/namespaces/inkscape"
   xmlns:sodipodi="http://sodipodi.sourceforge.net/DTD/sodipodi-0.dtd"
   xmlns="http://www.w3.org/2000/svg"
   xmlns:svg="http://www.w3.org/2000/svg">
  <sodipodi:namedview
     id="namedview563"
     pagecolor="#ffffff"
     bordercolor="#999999"
     borderopacity="1"
     inkscape:showpageshadow="0"
     inkscape:pageopacity="0"
     inkscape:pagecheckerboard="0"
     inkscape:deskcolor="#d1d1d1"
     inkscape:document-units="mm"
     showgrid="false"
     inkscape:zoom="2.6532575"
     inkscape:cx="159.99201"
     inkscape:cy="16.206493"
     inkscape:window-width="2560"
     inkscape:window-height="1369"
     inkscape:window-x="-8"
     inkscape:window-y="-8"
     inkscape:window-maximized="1"
     inkscape:current-layer="layer1" />
  <defs
     id="defs558" />
  <g
     inkscape:label="Layer 1"
     inkscape:groupmode="layer"
     id="layer1"
     transform="translate(-7.3719251,-32.108084)">
    <path
       id="path948"
       style="display:inline;fill:#dbe3db;fill-opacity:1;stroke:none;stroke-width:0.264896px;stroke-linecap:butt;stroke-linejoin:miter;stroke-opacity:1"
       d="m 67.504565,32.108084 -1.626978,0.924492 0.217035,0.265616 -0.0057,0.818038 -0.677521,0.160714 0.04507,1.050582 0.624684,-0.127124 -0.0264,3.764628 0.84845,0.954464 1.252479,-0.944646 -0.19735,-0.236161 -0.375018,0.196888 -0.177149,-0.236162 -0.02953,-3.763078 0.659907,-0.134358 0.181296,-0.563273 -0.386932,-0.535885 -0.430446,0.102319 c 0.0071,-0.33953 0.01162,-0.602339 0.01553,-0.743107 0.0099,-0.354173 0.08858,-0.953947 0.08858,-0.953947 z" />
    <path
       id="path1066"
       style="display:inline;fill:#dbe3db;fill-opacity:1;stroke:none;stroke-width:0.264896px;stroke-linecap:butt;stroke-linejoin:miter;stroke-opacity:1"
       d="m 41.792947,32.271382 -1.626978,0.925008 0.216516,0.265617 -0.03212,4.629175 -0.434745,0.417225 1.275427,1.574901 1.252479,-0.944645 -0.196831,-0.236161 -0.375021,0.196887 -0.177667,-0.236162 -0.02952,-3.768245 c 0,0 0.0295,-1.514963 0.03937,-1.869136 0.0099,-0.354173 0.08909,-0.954464 0.08909,-0.954464 z"
       sodipodi:nodetypes="cccccccccccsc" />
    <path
       id="path1798"
       style="display:inline;fill:#dbe3db;fill-opacity:1;stroke:none;stroke-width:0.264896px;stroke-linecap:butt;stroke-linejoin:miter;stroke-opacity:1"
       d="m 39.298424,32.271382 -1.626978,0.925008 0.216516,0.265617 -0.03212,4.629175 -0.434742,0.417225 1.275426,1.574901 1.25248,-0.944645 -0.196835,-0.236161 -0.375017,0.196887 -0.177668,-0.236162 -0.02952,-3.768245 c 0,0 0.0295,-1.514963 0.03937,-1.869136 0.0099,-0.354173 0.08909,-0.954464 0.08909,-0.954464 z"
       sodipodi:nodetypes="cccccccccccsc" />
    <path
       id="path1833"
       style="display:inline;fill:#dbe3db;fill-opacity:1;stroke:none;stroke-width:0.264896px;stroke-linecap:butt;stroke-linejoin:miter;stroke-opacity:1"
       d="m 34.29273,33.593782 -1.035445,1.04283 -0.0098,3.551205 -0.374499,0.304891 1.242637,1.308963 1.370576,-0.737939 0.629348,0.969967 1.338982,-1.078488 -0.258474,-0.291971 -0.280228,0.252697 -0.137782,-0.147278 c 0,0 -0.01974,-3.158489 0.0098,-3.404443 0.02958,-0.245953 0.157466,-0.914672 0.157466,-0.914672 z m 0.375057,1.347564 0.779045,0.265617 -0.05961,3.404083 -0.591535,0.304891 -0.19735,-0.295072 z"
       sodipodi:nodetypes="cccccccccccscccccccc" />
    <path
       style="display:inline;fill:#dbe3db;fill-opacity:1;stroke:none;stroke-width:0.264896px;stroke-linecap:butt;stroke-linejoin:miter;stroke-opacity:1"
       d="m 30.260058,42.350039 1.241193,-1.210451 0.05579,-4.563541 1.255138,-0.04174 -0.362595,-1.029579 -0.906489,-0.02783 -0.02789,-1.947853 1.715358,-0.02783 0.278921,0.04174 0.599678,-1.33567 c 0,0 -0.446273,0.153045 -0.655463,0.208698 -0.20919,0.05565 -1.729303,0.02783 -1.729303,0.02783 l -1.548006,1.41915 -0.01395,1.419149 c 0,0 -0.962274,-1.961765 -0.990166,-2.226117 -0.01904,-0.18041 -0.02789,-0.653922 -0.02789,-0.653922 l -1.701412,0.932187 c 0,0 0.111569,0.500876 0.418381,0.960013 0.306811,0.459137 1.129625,1.961766 1.296977,2.406989 0.167352,0.445224 0.125514,0.640009 0.125514,0.640009 l -1.101733,0.695662 -1.464329,-0.55653 c 0,0 0,0.51479 -0.292866,0.834794 -0.292866,0.320005 -0.753084,0.612183 -0.753084,0.612183 l 1.296978,1.669588 1.213301,-1.015666 -1.101733,-0.876534 c 0,0 0.09762,-0.125219 0.223136,-0.09739 0.125514,0.02783 2.552117,1.41915 2.552117,1.41915 l -0.01395,-1.41915 -0.990166,-0.333917 1.310923,-1.015666 z"
       id="path2521"
       sodipodi:nodetypes="ccccccccccscccsccsscccsccccsccccc" />
    <path
       id="path4024"
       style="display:inline;fill:#dbe3db;fill-opacity:1;stroke:none;stroke-width:0.264896px;stroke-linecap:butt;stroke-linejoin:miter;stroke-opacity:1"
       d="m 43.393277,33.529186 -0.983128,0.938961 0.76713,0.257348 -0.557866,0.305925 0.0347,2.129069 1.101744,-0.382922 -1.297025,1.746146 0.285928,0.320394 0.209264,-0.222725 1.164421,1.161686 2.070891,-1.495516 -0.0067,-2.587956 -0.18129,-0.111621 -1.269053,0.466122 1.380419,-1.968356 -0.362588,-0.19482 -0.181292,0.222726 z m 0.627793,1.370459 0.941176,0.229443 -0.920457,1.161687 z m 0.808572,1.551327 -0.04196,2.218986 -1.157174,-1.154969 0.697204,-0.925008 z" />
    <path
       id="path4985"
       style="display:inline;fill:#dbe3db;fill-opacity:1;stroke:none;stroke-width:0.264896px;stroke-linecap:butt;stroke-linejoin:miter;stroke-opacity:1"
       d="m 56.808602,32.389721 -1.854372,0.05736 -1.548247,1.419035 -0.01397,1.419551 c 0,0 -0.961969,-1.961869 -0.989859,-2.226221 -0.01905,-0.18041 -0.02797,-0.654223 -0.02797,-0.654223 l -1.701567,0.932243 c 0,0 0.111715,0.501011 0.418529,0.960148 0.306811,0.459136 1.129675,1.961865 1.297024,2.407088 0.167355,0.445223 0.125349,0.639754 0.125349,0.639754 l -1.101743,0.696082 -1.464334,-0.556555 c 0,0 2.06e-4,0.51457 -0.292658,0.834574 -0.292868,0.320004 -0.753145,0.612366 -0.753145,0.612366 l 1.297025,1.669665 1.213112,-1.015958 -1.101746,-0.876433 c 0,0 0.09774,-0.125495 0.22325,-0.09767 0.125515,0.02783 2.552091,1.419551 2.552091,1.419551 l -0.01397,-1.419551 -0.990383,-0.33383 1.311011,-1.015442 0.0979,5.092196 1.241084,-1.210262 0.0062,-3.336231 2.035665,-1.335319 z m -1.444133,1.13223 v 3.005502 l -0.625721,0.467155 0.0062,-3.462321 z" />
    <path
       id="path6133"
       style="display:inline;fill:#dbe3db;fill-opacity:1;stroke:none;stroke-width:0.264896px;stroke-linecap:butt;stroke-linejoin:miter;stroke-opacity:1"
       d="m 57.757525,33.529186 -0.627277,0.890385 1.073774,0.3545 -0.829805,0.271302 0.02072,2.20555 -0.481205,0.361735 c 0.828415,0.854793 1.428257,1.458124 2.022199,2.121834 l 2.084875,-1.342554 -0.02797,-3.791499 c -1.04947,-0.390885 -2.079188,-0.804503 -3.235309,-1.071253 z m 1.053054,1.453658 c 0.253064,0.06146 0.509633,0.136346 0.781114,0.271301 l -0.03522,3.436483 c -0.408459,-0.461976 -0.833692,-0.90975 -1.35245,-1.280025 l 0.578586,-0.278019 z" />
    <path
       id="path6983"
       style="display:inline;fill:#dbe3db;fill-opacity:1;stroke:none;stroke-width:0.264896px;stroke-linecap:butt;stroke-linejoin:miter;stroke-opacity:1"
       d="m 62.30963,33.543099 -0.983128,0.938961 0.767131,0.257349 -0.557866,0.305924 0.03471,2.129069 1.101746,-0.382922 -1.297024,1.746146 0.285927,0.320394 0.209261,-0.222725 1.164421,1.161686 2.070891,-1.495516 -0.0067,-2.587956 -0.18129,-0.111621 -1.269055,0.466122 1.380421,-1.968355 -0.362587,-0.194821 -0.181293,0.222726 z m 0.627796,1.370459 0.94117,0.229444 -0.920453,1.161686 z m 0.808569,1.551327 -0.04196,2.218986 -1.157169,-1.154969 0.697204,-0.925008 z" />
    <path
       id="path66625"
       style="display:inline;fill:#dbe3db;fill-opacity:1;stroke:none;stroke-width:0.264896px;stroke-linecap:butt;stroke-linejoin:miter;stroke-opacity:1"
       d="m 15.477471,32.504635 -1.055353,1.107085 0.216525,0.265617 -0.09206,4.641208 -0.374655,0.304891 1.219563,1.485181 0.412895,-0.418062 0.163231,-4.618228 0.778764,0.265617 -0.05988,3.403831 0.728121,1.422653 1.338938,-1.078487 -0.258385,-0.291972 -0.280085,0.252697 -0.137975,-0.147277 c 0,0 -0.01931,-2.858155 0.01027,-3.104109 0.02959,-0.245953 0.157615,-0.81442 0.157615,-0.81442 l -2.316141,-0.747241 c 0.0085,-0.431553 0.05153,-1.747356 0.05153,-1.747356 z"
       sodipodi:nodetypes="cccccccccccccccccccc" />
    <path
       id="path68262"
       style="display:inline;fill:#dbe3db;fill-opacity:1;stroke:none;stroke-width:0.264896px;stroke-linecap:butt;stroke-linejoin:miter;stroke-opacity:1"
       d="m 19.257758,33.529186 -0.626834,0.890385 1.073319,0.3545 -0.829408,0.271302 0.140723,3.479327 -0.308206,0.277962 0.258384,0.291972 0.325259,-0.265282 c 0.244631,0.272294 0.657358,0.359653 1.145504,0.90514 l 2.08463,-1.342554 c -0.0097,-0.771548 -0.01447,-1.054199 -0.01447,-1.054199 l -1.44229,0.355017 -0.0072,0.997872 c -0.762889,-0.615113 -0.780857,-0.820622 -0.78086,-0.820622 l 0.01498,-1.245918 2.215368,-0.220142 -0.01344,-1.803507 c -1.04947,-0.390885 -2.07934,-0.804503 -3.235462,-1.071253 z m 1.053164,1.453658 c 0.253064,0.06146 0.509869,0.136346 0.78135,0.271301 l 0.04754,0.924492 -0.844395,0.104386 z"
       sodipodi:nodetypes="cccccccccccccccccccccccc" />
    <path
       id="path70993"
       style="display:inline;fill:#dbe3db;fill-opacity:1;stroke:none;stroke-width:0.264896px;stroke-linecap:butt;stroke-linejoin:miter;stroke-opacity:1"
       d="m 15.809652,32.207458 c 0,0 -0.446585,0.15312 -0.655775,0.208773 -0.209188,0.05565 -1.729093,0.0279 -1.729093,0.0279 H 9.3915013 l -0.2000494,1.08521 H 9.6694588 L 8.86279,33.984611 c 0,0 0.116418,0.470522 0.4232296,0.929659 0.3068119,0.459137 1.4051614,1.341747 1.5725134,1.786971 0.167352,0.445223 0.125574,0.640271 0.125574,0.640271 L 9.8823653,38.037077 8.4178558,37.480521 c 0,0 3.704e-4,0.515087 -0.2924887,0.835091 -0.2928657,0.320005 -0.753442,0.611849 -0.753442,0.611849 l 1.2970782,1.669666 1.213362,-1.015442 -1.1017409,-0.876432 c 0,0 0.097728,-0.125495 0.2232422,-0.09767 0.1255144,0.02783 2.5522984,1.419035 2.5522984,1.419035 l -0.01395,-1.419035 -0.990637,-0.333829 1.311031,-1.015959 0.09767,5.092712 1.241268,-1.210778 0.01395,-1.141016 V 33.52934 h 0.209289 v -0.0036 l 1.505851,-0.02429 0.279053,0.04186 z m -5.222937,1.321883 h 1.654162 l -0.364319,0.33383 -0.01395,1.419035 c 0,0 -1.237663,-1.342269 -1.265555,-1.60662 -0.0039,-0.037 -0.0073,-0.09122 -0.01033,-0.146245 z"
       sodipodi:nodetypes="cscccccssccccccccscccccccccccccccccsc" />
  </g>
</svg>
